<?xml version="1.0" encoding="UTF-8"?>
<svg xmlns="http://www.w3.org/2000/svg" xmlns:xlink="http://www.w3.org/1999/xlink" viewBox="0 0 150 150" width="150px" height="150px">
<g id="surface570536">
<path style=" stroke:none;fill-rule:nonzero;fill:rgb(100%,100%,100%);fill-opacity:1;" d="M 42 12 C 25.464844 12 12 25.464844 12 42 L 12 108 C 12 124.535156 25.464844 138 42 138 L 108 138 C 124.535156 138 138 124.535156 138 108 L 138 42 C 138 25.464844 124.535156 12 108 12 Z M 42 18 L 108 18 C 121.292969 18 132 28.707031 132 42 L 132 108 C 132 121.292969 121.292969 132 108 132 L 42 132 C 28.707031 132 18 121.292969 18 108 L 18 42 C 18 28.707031 28.707031 18 42 18 Z M 76.546875 42 C 64.648438 42 54.363281 47.574219 49.773438 56.105469 C 39.613281 60.320312 33.214844 71.835938 37.253906 83.882812 C 39.183594 89.644531 43.457031 94.460938 49.046875 96.949219 C 55.09375 99.636719 60.828125 98.617188 65.835938 96.535156 L 66.984375 107.90625 C 67.109375 109.152344 67.992188 110.1875 69.199219 110.511719 C 70.410156 110.832031 71.691406 110.367188 72.414062 109.347656 L 83.097656 94.324219 C 88.804688 94.011719 93.421875 90.703125 96.355469 86.175781 C 96.464844 86.179688 96.464844 86.199219 96.585938 86.199219 C 106.164062 86.199219 113.992188 78.367188 113.992188 68.789062 C 113.996094 60.609375 108.21875 53.902344 100.574219 52.074219 C 95.195312 45.882812 86.457031 42 76.546875 42 Z M 76.546875 48 C 85.21875 48 92.660156 51.589844 96.597656 56.503906 C 97.058594 57.078125 97.71875 57.464844 98.449219 57.585938 C 103.867188 58.476562 107.996094 63.101562 107.992188 68.785156 C 107.992188 68.785156 107.992188 68.789062 107.992188 68.789062 C 107.992188 75.121094 102.917969 80.199219 96.585938 80.199219 C 96.519531 80.199219 96.195312 80.136719 95.515625 80.074219 C 94.25 79.957031 93.046875 80.648438 92.515625 81.804688 C 90.703125 85.726562 86.789062 88.460938 82.179688 88.460938 C 82.414062 88.460938 82.261719 88.425781 81.664062 88.394531 C 80.636719 88.339844 79.65625 88.816406 79.058594 89.65625 L 72.152344 99.363281 L 71.421875 92.121094 C 71.3125 91.082031 70.675781 90.175781 69.738281 89.722656 C 68.800781 89.269531 67.691406 89.335938 66.816406 89.902344 C 62.488281 92.6875 57.179688 93.996094 51.488281 91.464844 C 47.503906 89.691406 44.34375 86.152344 42.945312 81.980469 C 39.738281 72.414062 44.921875 63.890625 52.824219 61.144531 C 53.582031 60.878906 54.207031 60.320312 54.550781 59.589844 C 57.566406 53.179688 66.132812 48 76.546875 48 Z M 76.546875 48 "/>
</g>
</svg>
