<?xml version="1.0" encoding="UTF-8"?>
<svg xmlns="http://www.w3.org/2000/svg" xmlns:xlink="http://www.w3.org/1999/xlink" viewBox="0 0 256 256" width="256px" height="256px">
<g id="surface540277">
<path style=" stroke:none;fill-rule:nonzero;fill:rgb(100%,100%,100%);fill-opacity:1;" d="M 128 24 C 70.566406 24 24 70.566406 24 128 C 24 180.140625 62.410156 223.195312 112.453125 230.714844 L 112.453125 155.558594 L 86.71875 155.558594 L 86.71875 128.222656 L 112.453125 128.222656 L 112.453125 110.03125 C 112.453125 79.914062 127.125 66.699219 152.15625 66.699219 C 164.140625 66.699219 170.488281 67.59375 173.484375 67.992188 L 173.484375 91.851562 L 156.410156 91.851562 C 145.789062 91.851562 142.074219 101.933594 142.074219 113.285156 L 142.074219 128.222656 L 173.214844 128.222656 L 168.996094 155.558594 L 142.074219 155.558594 L 142.074219 230.933594 C 192.835938 224.050781 232 180.652344 232 128 C 232 70.566406 185.4375 24 128 24 Z M 128 24 "/>
</g>
</svg>
