<?xml version="1.0" encoding="UTF-8"?>
<svg xmlns="http://www.w3.org/2000/svg" xmlns:xlink="http://www.w3.org/1999/xlink" viewBox="0 0 64 64" width="64px" height="64px">
<g id="surface540164">
<path style=" stroke:none;fill-rule:nonzero;fill:rgb(100%,100%,100%);fill-opacity:1;" d="M 32 6 C 17.640625 6 6 17.640625 6 32 C 6 45.035156 15.601562 55.800781 28.113281 57.679688 L 28.113281 38.890625 L 21.679688 38.890625 L 21.679688 32.054688 L 28.113281 32.054688 L 28.113281 27.507812 C 28.113281 19.980469 31.78125 16.675781 38.039062 16.675781 C 41.035156 16.675781 42.621094 16.898438 43.371094 16.996094 L 43.371094 22.964844 L 39.101562 22.964844 C 36.445312 22.964844 35.519531 25.484375 35.519531 28.320312 L 35.519531 32.054688 L 43.304688 32.054688 L 42.25 38.890625 L 35.519531 38.890625 L 35.519531 57.734375 C 48.210938 56.011719 58 45.164062 58 32 C 58 17.640625 46.359375 6 32 6 Z M 32 6 "/>
</g>
</svg>
