<?xml version="1.0" encoding="UTF-8"?>
<svg xmlns="http://www.w3.org/2000/svg" xmlns:xlink="http://www.w3.org/1999/xlink" viewBox="0 0 250 250" width="250px" height="250px">
<g id="surface359882">
<path style=" stroke:none;fill-rule:nonzero;fill:rgb(100%,100%,100%);fill-opacity:1;" d="M 80 15 C 44.148438 15 15 44.148438 15 80 L 15 170 C 15 205.851562 44.148438 235 80 235 L 170 235 C 205.851562 235 235 205.851562 235 170 L 235 80 C 235 44.148438 205.851562 15 170 15 Z M 185 55 C 190.5 55 195 59.5 195 65 C 195 70.5 190.5 75 185 75 C 179.5 75 175 70.5 175 65 C 175 59.5 179.5 55 185 55 Z M 125 70 C 155.351562 70 180 94.648438 180 125 C 180 155.351562 155.351562 180 125 180 C 94.648438 180 70 155.351562 70 125 C 70 94.648438 94.648438 70 125 70 Z M 125 80 C 100.199219 80 80 100.199219 80 125 C 80 149.800781 100.199219 170 125 170 C 149.800781 170 170 149.800781 170 125 C 170 100.199219 149.800781 80 125 80 Z M 125 80 "/>
</g>
</svg>
